<?xml version="1.0" encoding="utf-8"?>
<!-- Generator: Adobe Illustrator 16.0.0, SVG Export Plug-In . SVG Version: 6.00 Build 0)  -->
<!DOCTYPE svg PUBLIC "-//W3C//DTD SVG 1.1//EN" "http://www.w3.org/Graphics/SVG/1.1/DTD/svg11.dtd">
<svg version="1.1" id="Layer_1" xmlns="http://www.w3.org/2000/svg" xmlns:xlink="http://www.w3.org/1999/xlink" x="0px" y="0px"
	 width="512px" height="512px" viewBox="0 0 512 512" enable-background="new 0 0 512 512" xml:space="preserve">
<path d="M294.375,57.594c0,26.5-21.484,48-47.984,48s-48-21.5-48-48s21.5-48,48-48S294.375,31.094,294.375,57.594z M246.391,444.781
	c-15.906,0-28.813,12.906-28.813,28.813s12.906,28.813,28.813,28.813s28.813-12.906,28.813-28.813S262.297,444.781,246.391,444.781z
	 M148.797,96.531c6.094-3.5,8.219-11.375,4.656-17.469c-3.5-6.125-11.344-8.219-17.469-4.688
	c-6.094,3.531-8.219,11.344-4.656,17.469C134.828,97.969,142.672,100.094,148.797,96.531z M334.375,418
	c-15.25,8.844-20.5,28.438-11.688,43.719c8.813,15.313,28.438,20.531,43.688,11.719c15.313-8.844,20.563-28.406,11.75-43.719
	C369.25,414.438,349.688,409.188,334.375,418z M58.266,175.438c7.625,4.406,17.438,1.781,21.844-5.844
	c4.406-7.656,1.781-17.438-5.844-21.875c-7.656-4.375-17.438-1.781-21.875,5.875C47.984,161.25,50.609,171.031,58.266,175.438z
	 M444.125,339.125c-16.813-9.719-38.375-3.969-48.063,12.875c-9.75,16.813-4,38.344,12.875,48.063
	c16.813,9.719,38.375,3.969,48.063-12.875S460.938,348.844,444.125,339.125z M57.578,265.594c0-10.594-8.594-19.188-19.188-19.188
	S19.203,255,19.203,265.594s8.594,19.188,19.188,19.188C49.016,284.781,57.578,276.188,57.578,265.594z M454.375,227.188
	c-21.188,0-38.375,17.219-38.375,38.406S433.188,304,454.375,304s38.438-17.219,38.438-38.406
	C492.75,244.375,475.563,227.188,454.375,227.188z M55.078,350.188c-10.719,6.188-14.406,19.906-8.219,30.594
	c6.188,10.719,19.906,14.375,30.594,8.188c10.719-6.156,14.375-19.875,8.188-30.563C79.453,347.688,65.766,344,55.078,350.188z
	 M447.313,197.594c19.938-11.469,26.688-36.938,15.25-56.813c-11.563-19.875-36.938-26.688-56.875-15.188
	C385.813,137.063,379,162.531,390.5,182.406S427.438,209.094,447.313,197.594z M155.203,423.563c-12.25-7.094-27.938-2.906-35,9.375
	c-7.031,12.219-2.844,27.906,9.375,34.938c12.25,7.063,27.938,2.875,35-9.344C171.641,446.281,167.453,430.625,155.203,423.563z
	 M372.813,46.656c-21.5-12.344-48.875-5-61.188,16.406c-12.375,21.406-5.063,48.844,16.375,61.219
	c21.375,12.313,48.813,5,61.188-16.438C401.563,86.438,394.188,59.031,372.813,46.656z M262.391,274.844v-137.25h-32v118.75
	L127.547,315.75l16,27.688L262.391,274.844z"/>
</svg>
